<?xml version="1.0" encoding="utf-8"?>
<!-- Generator: Adobe Illustrator 21.1.0, SVG Export Plug-In . SVG Version: 6.00 Build 0)  -->
<svg version="1.1" id="Layer_1" xmlns="http://www.w3.org/2000/svg" xmlns:xlink="http://www.w3.org/1999/xlink" x="0px" y="0px"
	 viewBox="0 0 211 156" style="enable-background:new 0 0 211 156;" xml:space="preserve">
<style type="text/css">
	.st0{fill-rule:evenodd;clip-rule:evenodd;fill:#EAEEF3;}
	.st1{fill:#B7B7B7;}
	.st2{fill:#B2B8C0;}
</style>
<g>
	<rect class="st0" width="211" height="156"/>
	<g>
		<g>
			<path class="st1" d="M133.1,55.5H77.9c-0.5,0-0.9,0.4-0.9,0.9v43.2c0,0.5,0.4,0.9,0.9,0.9h55.2c0.5,0,0.9-0.4,0.9-0.9V56.4
				C134,55.9,133.6,55.5,133.1,55.5L133.1,55.5z M128.6,93.3l-12.4-12.9c-0.1-0.1-0.4-0.2-0.5,0L107,88L96,74.4
				c-0.1-0.1-0.2-0.1-0.3-0.1c-0.1,0-0.2,0.1-0.3,0.1l-13,17.5v-31h46.2V93.3z M128.6,93.3"/>
			<path class="st1" d="M114.9,74c2.4,0,4.4-2,4.4-4.4c0-2.4-2-4.4-4.4-4.4c-2.4,0-4.4,2-4.4,4.4C110.5,72,112.5,74,114.9,74
				L114.9,74z M114.9,74"/>
		</g>
		<g>
			<path class="st2" d="M133.1,55.5H77.9c-0.5,0-0.9,0.4-0.9,0.9v43.2c0,0.5,0.4,0.9,0.9,0.9h55.2c0.5,0,0.9-0.4,0.9-0.9V56.4
				C134,55.9,133.6,55.5,133.1,55.5L133.1,55.5z M128.6,93.3l-12.4-12.9c-0.1-0.1-0.4-0.2-0.5,0L107,88L96,74.4
				c-0.1-0.1-0.2-0.1-0.3-0.1c-0.1,0-0.2,0.1-0.3,0.1l-13,17.5v-31h46.2V93.3z M128.6,93.3"/>
			<path class="st2" d="M114.9,74c2.4,0,4.4-2,4.4-4.4c0-2.4-2-4.4-4.4-4.4c-2.4,0-4.4,2-4.4,4.4C110.5,72,112.5,74,114.9,74
				L114.9,74z M114.9,74"/>
		</g>
	</g>
</g>
</svg>
