<?xml version="1.0" encoding="utf-8"?>
<!-- Generator: Adobe Illustrator 21.1.0, SVG Export Plug-In . SVG Version: 6.00 Build 0)  -->
<svg version="1.1" id="Layer_1" xmlns="http://www.w3.org/2000/svg" xmlns:xlink="http://www.w3.org/1999/xlink" x="0px" y="0px"
	 viewBox="0 0 100 100" style="enable-background:new 0 0 100 100;" xml:space="preserve">
<style type="text/css">
	.st0{fill:#EAEEF3;}
	.st1{fill:#B2B8C0;}
</style>
<rect class="st0" width="100" height="100"/>
<path class="st1" d="M64.5,60.4l-7.7-3.8c-0.7-0.4-1.2-1.1-1.2-1.9v-2.7c0.2-0.2,0.4-0.5,0.6-0.8c1-1.4,1.8-3,2.4-4.7
	c1.1-0.5,1.9-1.6,1.9-2.9v-3.2c0-0.8-0.3-1.5-0.8-2.1V34c0-0.4,0.2-3.1-1.7-5.2c-1.7-1.9-4.3-2.8-8-2.8s-6.3,1-8,2.8
	c-1.9,2.2-1.7,4.8-1.7,5.2v4.3c-0.5,0.6-0.8,1.3-0.8,2.1v3.2c0,1,0.4,1.9,1.2,2.5c0.7,2.9,2.3,5.1,2.8,5.8v2.7
	c0,0.8-0.4,1.5-1.1,1.9l-7.2,3.9c-2.3,1.3-3.8,3.7-3.8,6.4v2.6c0,3.8,12.1,4.8,18.5,4.8s18.5-1,18.5-4.8v-2.4
	C68.5,64.1,67,61.6,64.5,60.4z"/>
</svg>
