<?xml version="1.0" encoding="utf-8"?>
<!-- Designed by Vexels.com - 2016 All Rights Reserved - https://vexels.com/terms-and-conditions/  -->

<svg version="1.1" id="Layer_1" xmlns="http://www.w3.org/2000/svg" xmlns:xlink="http://www.w3.org/1999/xlink" x="0px" y="0px"
	 width="1200px" height="1200px" viewBox="0 0 1200 1200" enable-background="new 0 0 1200 1200" xml:space="preserve">
<g>
	<path fill="#424241" d="M381.368,661.019c19.718,1.644-23.007,62.451-23.007,62.451s83.334-45.668,109.04-145.256
		c9.1,7.942,10.2,13.245,10.2,15.393c0,0,10.346,54.139-31.022,122.875c37.783,103.843,93.343,218.568,150.088,288.608
		c37.446-51.922,108.688-206.505,125.583-293.456c-18.353-23.738-37.267-76.882-37.21-119.854c0-2.148-2.05-5.624,7.049-13.566
		c25.707,99.588,109.041,145.256,109.041,145.256s-42.724-60.806-23.007-62.451c67.372,67.372,130.846,37.434,130.846,37.434
		c-30.446-13.323-97.817-115.927-92.888-322.692c2.132-147.161-48.612-233.215-61.041-244.686
		c-36.796-48.442-88.198-71.867-124.945-79.09c-21.196-4.162-37.832-0.699-43.082,0.67v0.82c-4.325-0.008-8.616-0.081-12.77-0.321
		c0,0-19.068-6.237-44.849-1.17c-36.743,7.224-88.145,30.649-124.941,79.09c-12.429,11.471-63.169,97.525-61.042,244.686
		c4.93,206.764-62.442,309.369-92.888,322.692C250.522,698.453,313.996,728.39,381.368,661.019z"/>
	<path fill="#424241" d="M1106.906,939.877c-3.622-86.947-61.59-134.049-97.813-141.293
		c-36.232-7.244-199.261-47.098-199.261-47.098l28.988,188.391l-97.817-47.097l-141.001,148.228L459,892.78l-97.813,47.097
		l28.98-188.391c0,0-163.025,39.854-199.253,47.098c-36.232,7.244-94.195,54.346-97.822,141.293
		C89.475,1026.825,103.967,1150,103.967,1150h470.388h51.292h470.392C1096.04,1150,1110.528,1026.825,1106.906,939.877z"/>
</g>
</svg>
